<svg width="22" height="20" viewBox="0 0 22 20" fill="none" xmlns="http://www.w3.org/2000/svg">
<path d="M11 1.875C9.23233 1.875 7.50435 2.35152 6.03459 3.24431C4.56482 4.1371 3.41928 5.40605 2.74282 6.8907C2.06637 8.37535 1.88938 10.009 2.23424 11.5851C2.57909 13.1612 3.4303 14.6089 4.68023 15.7452C5.93017 16.8815 7.52268 17.6554 9.25638 17.9689C10.9901 18.2824 12.7871 18.1215 14.4202 17.5065C16.0533 16.8916 17.4492 15.8502 18.4313 14.514C19.4133 13.1779 19.9375 11.607 19.9375 10C19.933 7.84638 18.9899 5.78216 17.3147 4.25932C15.6396 2.73648 13.369 1.87913 11 1.875Z" fill="#C89600"/>
</svg>
