<svg width="25" height="25" viewBox="0 0 25 25" fill="none" xmlns="http://www.w3.org/2000/svg">
<g clip-path="url(#clip0_22_113)">
<path fill-rule="evenodd" clip-rule="evenodd" d="M6.2243 1.77208C6.23525 1.77815 6.24619 1.78422 6.25713 1.79028L22.6571 10.8767C22.8449 10.9807 23.0431 11.0905 23.1998 11.1971C23.3582 11.3049 23.6283 11.5075 23.7857 11.8544C23.9719 12.2647 23.9719 12.7353 23.7857 13.1456C23.6283 13.4925 23.3582 13.6951 23.1998 13.8029C23.0431 13.9095 22.845 14.0192 22.6571 14.1232L6.22429 23.2279C6.00086 23.3518 5.7756 23.4766 5.58275 23.5618C5.40188 23.6417 5.04573 23.7853 4.62863 23.7102C4.15291 23.6247 3.74357 23.3237 3.51999 22.8952C3.32395 22.5195 3.35477 22.1367 3.37706 21.9402C3.40083 21.7308 3.45282 21.4785 3.50437 21.2283L4.37877 16.9813C4.38901 16.9315 4.39909 16.8824 4.40904 16.8339C4.59381 15.9335 4.73316 15.2545 5.06736 14.6721C5.36147 14.1595 5.76125 13.7154 6.24014 13.3692C6.77638 12.9815 7.42581 12.7722 8.28292 12.5C7.42581 12.2278 6.77638 12.0185 6.24014 11.6308C5.76125 11.2846 5.36147 10.8405 5.06736 10.3279C4.73316 9.74554 4.59381 9.06646 4.40904 8.16609C4.39909 8.11762 4.38901 8.0685 4.37877 8.01873L3.51195 3.80846C3.50943 3.79622 3.5069 3.78397 3.50438 3.77171C3.45282 3.52151 3.40083 3.26924 3.37706 3.05977C3.35477 2.86331 3.32395 2.48053 3.51999 2.1048C3.74357 1.67627 4.15291 1.37533 4.62863 1.28976C5.04573 1.21472 5.40188 1.35832 5.58275 1.4382C5.7756 1.52337 6.00087 1.64824 6.2243 1.77208ZM5.64387 3.83223L6.4193 7.59862C6.64867 8.71271 6.72786 9.03581 6.87433 9.29105C7.02138 9.54732 7.22127 9.76939 7.46072 9.94249C7.69921 10.1149 8.01222 10.2275 9.09614 10.5724L12.0346 11.5074C12.4669 11.6449 12.7604 12.0464 12.7604 12.5C12.7604 12.9536 12.4669 13.3551 12.0346 13.4926L9.09614 14.4276C8.01222 14.7725 7.69921 14.8851 7.46072 15.0575C7.22127 15.2306 7.02138 15.4527 6.87433 15.7089C6.72786 15.9642 6.64867 16.2873 6.4193 17.4014L5.64387 21.1678L21.2881 12.5L5.64387 3.83223Z" fill="white"/>
</g>
<defs>
<clipPath id="clip0_22_113">
<rect width="25" height="25" fill="white"/>
</clipPath>
</defs>
</svg>
