<svg width="58" height="58" viewBox="0 0 58 58" fill="none" xmlns="http://www.w3.org/2000/svg">
<g filter="url(#filter0_d_103_206)">
<rect x="4" width="50" height="50" rx="25" fill="#8FA0AF" shape-rendering="crispEdges"/>
<path fill-rule="evenodd" clip-rule="evenodd" d="M29 14C25.134 14 22 17.134 22 21C22 24.866 25.134 28 29 28C32.866 28 36 24.866 36 21C36 17.134 32.866 14 29 14ZM20 21C20 16.0294 24.0294 12 29 12C33.9706 12 38 16.0294 38 21C38 25.9706 33.9706 30 29 30C24.0294 30 20 25.9706 20 21Z" fill="white"/>
<path fill-rule="evenodd" clip-rule="evenodd" d="M29.0002 29.9988C26.718 29.9988 24.476 30.5996 22.4996 31.7407C20.5233 32.8819 18.8821 34.5233 17.7412 36.4998C17.4651 36.9781 16.8536 37.1421 16.3752 36.866C15.8969 36.5899 15.733 35.9783 16.0091 35.5C17.3255 33.2194 19.2191 31.3255 21.4996 30.0087C23.78 28.692 26.3669 27.9988 29.0002 27.9988C31.6335 27.9988 34.2203 28.692 36.5008 30.0087C38.7812 31.3255 40.6748 33.2194 41.9912 35.5C42.2673 35.9783 42.1034 36.5899 41.6251 36.866C41.1468 37.1421 40.5352 36.9781 40.2591 36.4998C39.1182 34.5233 37.4771 32.8819 35.5007 31.7407C33.5243 30.5996 31.2823 29.9988 29.0002 29.9988Z" fill="white"/>
</g>
<defs>
<filter id="filter0_d_103_206" x="0" y="0" width="58" height="58" filterUnits="userSpaceOnUse" color-interpolation-filters="sRGB">
<feFlood flood-opacity="0" result="BackgroundImageFix"/>
<feColorMatrix in="SourceAlpha" type="matrix" values="0 0 0 0 0 0 0 0 0 0 0 0 0 0 0 0 0 0 127 0" result="hardAlpha"/>
<feOffset dy="4"/>
<feGaussianBlur stdDeviation="2"/>
<feComposite in2="hardAlpha" operator="out"/>
<feColorMatrix type="matrix" values="0 0 0 0 0 0 0 0 0 0 0 0 0 0 0 0 0 0 0.25 0"/>
<feBlend mode="normal" in2="BackgroundImageFix" result="effect1_dropShadow_103_206"/>
<feBlend mode="normal" in="SourceGraphic" in2="effect1_dropShadow_103_206" result="shape"/>
</filter>
</defs>
</svg>
