<svg width="50" height="50" viewBox="0 0 50 50" fill="none" xmlns="http://www.w3.org/2000/svg">
<path d="M28.7917 45.8333H21.2084C20.7332 45.8334 20.2723 45.671 19.9021 45.3732C19.5319 45.0754 19.2746 44.6599 19.1729 44.1958L18.325 40.2708C17.1939 39.7752 16.1213 39.1554 15.1271 38.4229L11.3 39.6416C10.847 39.7861 10.3583 39.7712 9.91486 39.5996C9.47146 39.4279 9.10013 39.1097 8.86252 38.6979L5.06252 32.1333C4.82741 31.7211 4.73915 31.2413 4.8122 30.7724C4.88524 30.3035 5.11525 29.8732 5.46461 29.552L8.43336 26.8437C8.29835 25.6169 8.29835 24.3789 8.43336 23.152L5.46461 20.45C5.11476 20.1287 4.88443 19.698 4.81138 19.2287C4.73832 18.7593 4.82688 18.2791 5.06252 17.8666L8.85419 11.2979C9.0918 10.886 9.46313 10.5679 9.90652 10.3962C10.3499 10.2245 10.8387 10.2097 11.2917 10.3541L15.1188 11.5729C15.6271 11.1979 16.1563 10.8479 16.7021 10.5312C17.2292 10.2354 17.7709 9.96663 18.325 9.72704L19.175 5.80621C19.2762 5.34204 19.533 4.92639 19.9028 4.62819C20.2726 4.32998 20.7333 4.16713 21.2084 4.16663H28.7917C29.2668 4.16713 29.7274 4.32998 30.0972 4.62819C30.467 4.92639 30.7238 5.34204 30.825 5.80621L31.6834 9.72913C32.8138 10.2247 33.8857 10.8445 34.8792 11.577L38.7084 10.3583C39.1611 10.2144 39.6494 10.2295 40.0923 10.4011C40.5353 10.5728 40.9062 10.8906 41.1438 11.302L44.9354 17.8708C45.4188 18.7187 45.2521 19.7916 44.5333 20.452L41.5646 23.1604C41.6996 24.3872 41.6996 25.6252 41.5646 26.852L44.5333 29.5604C45.2521 30.2229 45.4188 31.2937 44.9354 32.1416L41.1438 38.7104C40.9062 39.1222 40.5348 39.4404 40.0914 39.6121C39.648 39.7837 39.1593 39.7986 38.7063 39.6541L34.8792 38.4354C33.8857 39.1674 32.8138 39.7864 31.6834 40.2812L30.825 44.1958C30.7234 44.6596 30.4664 45.0748 30.0967 45.3725C29.7269 45.6703 29.2665 45.8329 28.7917 45.8333ZM15.875 33.8104L17.5834 35.0604C17.9688 35.3437 18.3688 35.6041 18.7854 35.8416C19.1771 36.0687 19.5771 36.2729 19.9917 36.4583L21.9354 37.3104L22.8875 41.6666H27.1167L28.0688 37.3083L30.0125 36.4562C30.8604 36.0812 31.6667 35.6166 32.4146 35.0687L34.1229 33.8187L38.3771 35.1729L40.4917 31.5104L37.1938 28.5041L37.4271 26.3958C37.5313 25.4729 37.5313 24.5416 37.4271 23.6208L37.1938 21.5125L40.4938 18.5L38.3771 14.8354L34.125 16.1895L32.4146 14.9395C31.6663 14.3889 30.861 13.9202 30.0125 13.5416L28.0688 12.6895L27.1167 8.33329H22.8875L21.9292 12.6916L19.9917 13.5416C19.1421 13.9137 18.3364 14.3791 17.5896 14.9291L15.8792 16.1791L11.6292 14.825L9.51044 18.5L12.8084 21.502L12.575 23.6125C12.4709 24.5354 12.4709 25.4666 12.575 26.3875L12.8084 28.4958L9.51044 31.502L11.625 35.1645L15.875 33.8104ZM24.9917 33.3333C22.7816 33.3333 20.6619 32.4553 19.0991 30.8925C17.5363 29.3297 16.6584 27.2101 16.6584 25C16.6584 22.7898 17.5363 20.6702 19.0991 19.1074C20.6619 17.5446 22.7816 16.6666 24.9917 16.6666C27.2018 16.6666 29.3214 17.5446 30.8842 19.1074C32.447 20.6702 33.325 22.7898 33.325 25C33.325 27.2101 32.447 29.3297 30.8842 30.8925C29.3214 32.4553 27.2018 33.3333 24.9917 33.3333ZM24.9917 20.8333C24.1758 20.8341 23.378 21.0745 22.6975 21.5246C22.0169 21.9746 21.4835 22.6146 21.1634 23.3651C20.8432 24.1156 20.7505 24.9436 20.8966 25.7463C21.0428 26.5491 21.4214 27.2912 21.9855 27.8807C22.5496 28.4702 23.2744 28.8811 24.0699 29.0624C24.8655 29.2438 25.6967 29.1875 26.4606 28.9007C27.2244 28.6139 27.8872 28.1091 28.3668 27.449C28.8464 26.7889 29.1216 26.0026 29.1584 25.1875V26.0208V25C29.1584 23.8949 28.7194 22.8351 27.938 22.0537C27.1566 21.2723 26.0968 20.8333 24.9917 20.8333Z" fill="white"/>
</svg>
